<svg xmlns="http://www.w3.org/2000/svg" width="48" height="48" viewBox="0 0 48 48">
  <g id="Group_4045" data-name="Group 4045" transform="translate(-728 -1128)">
    <rect id="Rectangle_1642" data-name="Rectangle 1642" width="48" height="48" rx="8" transform="translate(728 1128)" fill="#bfe34e" opacity="0.2"/>
    <g id="Group_3953" data-name="Group 3953" transform="translate(737.945 1138)">
      <g id="Group_3948" data-name="Group 3948" transform="translate(0.054 16.846)">
        <g id="Group_3947" data-name="Group 3947">
          <path id="Path_5515" data-name="Path 5515" d="M2.676,302H.891a.836.836,0,0,0-.837.837v10.041a.836.836,0,0,0,.837.837H2.676a2.513,2.513,0,0,0,2.51-2.51V304.51A2.513,2.513,0,0,0,2.676,302Z" transform="translate(-0.054 -302)" fill="#bfe34e"/>
        </g>
      </g>
      <g id="Group_3950" data-name="Group 3950" transform="translate(6.86 16.525)">
        <g id="Group_3949" data-name="Group 3949">
          <path id="Path_5516" data-name="Path 5516" d="M143.56,298.19a1.533,1.533,0,0,0-.385-.418,1.658,1.658,0,0,0-2.259.167l-3.8,4.384-.117.134a2.469,2.469,0,0,1-1.841.8h-6.493a.837.837,0,1,1,0-1.673h5.1a1.678,1.678,0,0,0,1.673-1.673V299.9a1.675,1.675,0,0,0-1.673-1.657h-3.029a2.3,2.3,0,0,1-1.473-.552,5.865,5.865,0,0,0-7.213-.385V307.6a19.315,19.315,0,0,0,5.087.686h7.464a5.865,5.865,0,0,0,4.686-2.343l4.016-5.355A2.216,2.216,0,0,0,143.56,298.19Z" transform="translate(-122.056 -296.246)" fill="#bfe34e"/>
        </g>
      </g>
      <g id="Group_3952" data-name="Group 3952" transform="translate(5.576)">
        <g id="Group_3951" data-name="Group 3951">
          <path id="Path_5517" data-name="Path 5517" d="M115.968,1.617a4.767,4.767,0,0,0-7.562.531c-.075.105-.146.211-.212.315-.066-.1-.137-.21-.212-.315a4.767,4.767,0,0,0-7.562-.531,5.578,5.578,0,0,0-1.366,3.726A6.743,6.743,0,0,0,100.929,9.8a40.494,40.494,0,0,0,4.571,4.23c.685.578,1.393,1.176,2.146,1.828a.837.837,0,0,0,1.1,0c.753-.652,1.461-1.25,2.146-1.828,1.19-1,2.219-1.873,3.111-2.714,1.732-1.634,3.335-3.489,3.335-5.975A5.578,5.578,0,0,0,115.968,1.617Z" transform="translate(-99.054 0)" fill="#bfe34e"/>
        </g>
      </g>
    </g>
  </g>
</svg>
