<svg xmlns="http://www.w3.org/2000/svg" width="48" height="48" viewBox="0 0 48 48">
  <g id="Group_4047" data-name="Group 4047" transform="translate(-229 -1128)">
    <rect id="Rectangle_1640" data-name="Rectangle 1640" width="48" height="48" rx="8" transform="translate(229 1128)" fill="#bfe34e" opacity="0.2"/>
    <g id="Group_3945" data-name="Group 3945" transform="translate(234 1136)">
      <path id="Path_5504" data-name="Path 5504" d="M75.866,13.046A13.047,13.047,0,1,0,62.82,26.092,13.061,13.061,0,0,0,75.866,13.046ZM60.494,18.612,56.04,14.157l1.35-1.35,3.1,3.1L68.25,8.156l1.35,1.35Z" transform="translate(-43.814)" fill="#bfe34e"/>
      <path id="Path_5505" data-name="Path 5505" d="M6.949,345.875,3,351.635l5.839-1.089,1.089,5.839,3.7-5.394A15.031,15.031,0,0,1,6.949,345.875Z" transform="translate(0 -323.992)" fill="#bfe34e"/>
      <path id="Path_5506" data-name="Path 5506" d="M347.689,345.875a15.031,15.031,0,0,1-6.677,5.117l3.7,5.394,1.089-5.839,5.839,1.089Z" transform="translate(-316.626 -323.992)" fill="#bfe34e"/>
    </g>
  </g>
</svg>
