<svg id="Component_25_11" data-name="Component 25 – 11" xmlns="http://www.w3.org/2000/svg" width="32" height="32" viewBox="0 0 32 32">
  <path id="Path_5436" data-name="Path 5436" d="M14.255,4.754m0-3.754,6.523,14.942v2.816a1.877,1.877,0,0,1-1.87,1.885c-.059,0-.117,0-.176-.008a18.572,18.572,0,0,1-8.1-2.881A18.3,18.3,0,0,1,5,12.122,18.572,18.572,0,0,1,2.119,3.985a1.878,1.878,0,0,1,1.7-2.039c.055,0,.112-.008.167-.008H6.8A1.877,1.877,0,0,1,8.68,3.553,12.044,12.044,0,0,0,9.337,6.19a1.877,1.877,0,0,1-.422,1.98L7.723,9.362a15.017,15.017,0,0,0,5.631,5.631L14.546,13.8a1.877,1.877,0,0,1,1.98-.422,12.044,12.044,0,0,0,2.637.657A1.877,1.877,0,0,1,20.778,15.942Z" transform="translate(4.624 4.696)" fill="#697b86"/>
  <rect id="Rectangle_1481" data-name="Rectangle 1481" width="32" height="32" fill="none"/>
</svg>
