<svg id="Component_25_92" data-name="Component 25 – 92" xmlns="http://www.w3.org/2000/svg" width="32" height="32" viewBox="0 0 32 32">
  <path id="Path_5436" data-name="Path 5436" d="M11.87,4.017,11.87,1m5.242,12.007v2.263a1.508,1.508,0,0,1-1.5,1.514c-.048,0-.094,0-.142-.006a14.924,14.924,0,0,1-6.509-2.315A14.7,14.7,0,0,1,4.433,9.937,14.924,14.924,0,0,1,2.118,3.4,1.509,1.509,0,0,1,3.485,1.76c.044,0,.09-.006.134-.006H5.881a1.508,1.508,0,0,1,1.508,1.3,9.679,9.679,0,0,0,.528,2.119,1.508,1.508,0,0,1-.339,1.591l-.958.958a12.067,12.067,0,0,0,4.525,4.525l.958-.958a1.508,1.508,0,0,1,1.591-.339,9.678,9.678,0,0,0,2.119.528A1.508,1.508,0,0,1,17.111,13.007Z" transform="translate(6.491 6.66)" fill="none" stroke="#697b86" stroke-linecap="round" stroke-linejoin="round" stroke-width="1.5"/>
  <rect id="Rectangle_1481" data-name="Rectangle 1481" width="32" height="32" fill="none"/>
</svg>
