<svg id="Component_8_2" data-name="Component 8 – 2" xmlns="http://www.w3.org/2000/svg" width="32" height="32" viewBox="0 0 32 32">
  <rect id="Rectangle_1429" data-name="Rectangle 1429" width="32" height="32" fill="none"/>
  <g id="phone_6_" data-name="phone (6)" transform="translate(5.688 -21.665)">
    <path id="Path_5541" data-name="Path 5541" d="M189.619,31h-4.6a4.022,4.022,0,0,0-.575,8v1.765a.575.575,0,0,0,.981.406l2.13-2.13h2.061a4.023,4.023,0,1,0,0-8.045Z" transform="translate(-172.598 -3)" fill="none" stroke="#fff" stroke-width="2"/>
    <path id="Path_5542" data-name="Path 5542" d="M12.91,114.6a1.726,1.726,0,0,0,1.724-1.724v-2.3a.574.574,0,0,0-.393-.545l-3.44-1.149a.575.575,0,0,0-.5.067l-1.462.975A10.114,10.114,0,0,1,4.713,105.8l.975-1.462a.575.575,0,0,0,.067-.5l-1.149-3.44A.574.574,0,0,0,4.061,100H1.724A1.719,1.719,0,0,0,0,101.716C0,108.336,6.289,114.6,12.91,114.6Z" transform="translate(0 -67.154)" fill="none" stroke="#fff" stroke-width="2"/>
  </g>
</svg>
