<svg id="Group_3835" data-name="Group 3835" xmlns="http://www.w3.org/2000/svg" width="24" height="24" viewBox="0 0 24 24">
  <path id="Path_5455" data-name="Path 5455" d="M22.636,10.225c-.369-.272-.831-.613-.891-.838A2.793,2.793,0,0,1,22.1,8.163c.326-.747.662-1.521.288-2.165s-1.223-.748-2.04-.84a2.777,2.777,0,0,1-1.22-.291,2.785,2.785,0,0,1-.291-1.22c-.092-.817-.187-1.662-.84-2.04-.568-.33-1.409-.042-2.165.288a3.473,3.473,0,0,1-1.225.359c-.225-.061-.565-.522-.838-.891C13.3.724,12.77,0,12,0s-1.3.724-1.774,1.363c-.273.37-.613.832-.932.9a3.593,3.593,0,0,1-1.131-.369A2.639,2.639,0,0,0,6,1.607c-.654.378-.749,1.223-.841,2.041a2.8,2.8,0,0,1-.29,1.22,2.787,2.787,0,0,1-1.22.29c-.818.092-1.664.188-2.041.84s-.037,1.417.288,2.165a2.783,2.783,0,0,1,.359,1.225c-.061.225-.521.566-.891.838C.724,10.7,0,11.23,0,12s.724,1.3,1.364,1.775c.369.272.831.613.891.838A2.793,2.793,0,0,1,1.9,15.837c-.326.747-.662,1.521-.288,2.165s1.223.748,2.04.84a2.777,2.777,0,0,1,1.22.291,2.785,2.785,0,0,1,.291,1.22c.092.817.187,1.662.84,2.04.565.329,1.406.042,2.164-.288a3.211,3.211,0,0,1,1.225-.359c.225.061.565.522.838.891C10.7,23.276,11.23,24,12,24s1.3-.724,1.774-1.363c.273-.37.613-.832.932-.9a3.593,3.593,0,0,1,1.131.369c.761.33,1.6.616,2.164.289.654-.378.749-1.223.841-2.041a2.8,2.8,0,0,1,.29-1.22,2.785,2.785,0,0,1,1.22-.291c.818-.092,1.664-.187,2.041-.84s.037-1.417-.288-2.165a2.8,2.8,0,0,1-.359-1.224c.061-.225.521-.566.891-.838C23.276,13.3,24,12.77,24,12S23.276,10.7,22.636,10.225ZM9.391,14.087a.522.522,0,0,1-.357.495.5.5,0,0,1-.165.027.523.523,0,0,1-.417-.209L6.261,11.478v2.609a.522.522,0,0,1-1.044,0V9.913A.522.522,0,0,1,6.156,9.6l2.191,2.922V9.913a.522.522,0,0,1,1.044,0Zm3.652-2.609a.522.522,0,1,1,0,1.043H11.478v1.043h1.565a.522.522,0,1,1,0,1.044H10.956a.522.522,0,0,1-.522-.522V9.913a.522.522,0,0,1,.522-.522h2.087a.522.522,0,1,1,0,1.044H11.478v1.043Zm6.767-1.439-1.043,4.174a.521.521,0,0,1-.486.394H18.26a.523.523,0,0,1-.5-.357l-.547-1.645-.548,1.646a.5.5,0,0,1-.515.356.522.522,0,0,1-.486-.394l-1.043-4.174a.522.522,0,1,1,1.012-.253l.608,2.435.477-1.431a.544.544,0,0,1,.99,0l.477,1.431L18.8,9.787a.522.522,0,0,1,1.013.252Z" fill="#2f4858"/>
</svg>
