<svg xmlns="http://www.w3.org/2000/svg" width="32" height="32" viewBox="0 0 32 32">
  <g id="Group_4040" data-name="Group 4040" transform="translate(-0.016)">
    <rect id="Rectangle_1426" data-name="Rectangle 1426" width="32" height="32" transform="translate(0.017)" fill="none"/>
    <g id="Group_3704" data-name="Group 3704" transform="translate(7.004 7.004)">
      <circle id="Ellipse_248" data-name="Ellipse 248" cx="2.701" cy="2.701" r="2.701" transform="translate(6.303 6.303)" fill="none" stroke="#f59b5c" stroke-linecap="round" stroke-linejoin="round" stroke-width="2"/>
      <path id="Path_5431" data-name="Path 5431" d="M16.062,12.46a1.351,1.351,0,0,0,.27,1.49l.049.049a1.638,1.638,0,0,1,0,2.315l0,0a1.638,1.638,0,0,1-2.315,0l0,0-.049-.049a1.362,1.362,0,0,0-2.308.966v.139a1.637,1.637,0,1,1-3.274,0V17.3a1.351,1.351,0,0,0-.884-1.236,1.351,1.351,0,0,0-1.49.27l-.049.049a1.638,1.638,0,0,1-2.315,0l0,0a1.638,1.638,0,0,1,0-2.315l0,0,.049-.049a1.362,1.362,0,0,0-.966-2.308H2.637a1.637,1.637,0,0,1,0-3.274h.074a1.351,1.351,0,0,0,1.236-.884,1.351,1.351,0,0,0-.27-1.49L3.628,6.01a1.638,1.638,0,0,1,0-2.315l0,0a1.638,1.638,0,0,1,2.315,0l0,0,.049.049a1.351,1.351,0,0,0,1.49.27h.065a1.351,1.351,0,0,0,.819-1.236V2.637a1.637,1.637,0,0,1,3.274,0v.074a1.362,1.362,0,0,0,2.308.966L14,3.628a1.638,1.638,0,0,1,2.315,0l0,0a1.638,1.638,0,0,1,0,2.315l0,0-.049.049A1.351,1.351,0,0,0,16,7.483v.065a1.351,1.351,0,0,0,1.236.819h.139a1.637,1.637,0,1,1,0,3.274H17.3A1.351,1.351,0,0,0,16.062,12.46Z" transform="translate(-1 -1)" fill="none" stroke="#f59b5c" stroke-linecap="round" stroke-linejoin="round" stroke-width="2"/>
    </g>
  </g>
</svg>
