<svg id="Component_25_15" data-name="Component 25 – 15" xmlns="http://www.w3.org/2000/svg" width="24" height="24" viewBox="0 0 24 24">
  <path id="Path_5436" data-name="Path 5436" d="M10.569,3.615m0-2.615,4.543,10.406v1.961a1.307,1.307,0,0,1-1.3,1.312c-.041,0-.082,0-.123-.005a12.934,12.934,0,0,1-5.641-2.007A12.744,12.744,0,0,1,4.124,8.746,12.934,12.934,0,0,1,2.117,3.079,1.308,1.308,0,0,1,3.3,1.659c.039,0,.078-.005.116-.005H5.379A1.307,1.307,0,0,1,6.686,2.778a8.388,8.388,0,0,0,.458,1.837,1.307,1.307,0,0,1-.294,1.379l-.83.83a10.458,10.458,0,0,0,3.922,3.922l.83-.83a1.307,1.307,0,0,1,1.379-.294,8.388,8.388,0,0,0,1.837.458A1.307,1.307,0,0,1,15.111,11.406Z" transform="translate(3.388 4.5)" fill="none" stroke="#697b86" stroke-linecap="round" stroke-linejoin="round" stroke-width="1.5"/>
  <rect id="Rectangle_1481" data-name="Rectangle 1481" width="24" height="24" fill="none"/>
</svg>
