<svg id="Component_41_53" data-name="Component 41 – 53" xmlns="http://www.w3.org/2000/svg" width="32" height="32" viewBox="0 0 32 32">
  <g id="Group_3747" data-name="Group 3747" transform="translate(-1120.5 -1017.5)">
    <path id="Path_5438" data-name="Path 5438" d="M8,3H5A2,2,0,0,0,3,5V8M21,8V5a2,2,0,0,0-2-2H16m0,18h3a2,2,0,0,0,2-2V16M3,16v3a2,2,0,0,0,2,2H8" transform="translate(1124.5 1021.5)" fill="none" stroke="#fff" stroke-linecap="round" stroke-linejoin="round" stroke-width="2"/>
    <g id="Group_3746" data-name="Group 3746" transform="translate(1130 1026)">
      <path id="Path_5439" data-name="Path 5439" d="M1,8S3,4,6.5,4,12,8,12,8s-2,4-5.5,4S1,8,1,8Z" fill="none" stroke="#fff" stroke-linecap="round" stroke-linejoin="round" stroke-width="2"/>
      <circle id="Ellipse_254" data-name="Ellipse 254" cx="0.5" cy="0.5" r="0.5" transform="translate(6 7.5)" fill="none" stroke="#fff" stroke-linecap="round" stroke-linejoin="round" stroke-width="2"/>
    </g>
  </g>
  <rect id="Rectangle_1487" data-name="Rectangle 1487" width="32" height="32" fill="none"/>
</svg>
