<svg id="Component_55_24" data-name="Component 55 – 24" xmlns="http://www.w3.org/2000/svg" width="24" height="24" viewBox="0 0 24 24">
  <path id="Path_5469" data-name="Path 5469" d="M123.572-106.887l-4.919-.752-2.2-4.7a.52.52,0,0,0-.9,0l-2.2,4.7-4.919.752a.5.5,0,0,0-.282.845l3.573,3.668-.845,5.186a.5.5,0,0,0,.735.519L116-99.1l4.393,2.432a.5.5,0,0,0,.735-.519l-.845-5.186,3.573-3.668a.5.5,0,0,0-.282-.845Z" transform="translate(-103.997 116.606)" fill="none" stroke="#bfe34e" stroke-width="2"/>
  <rect id="Rectangle_1590" data-name="Rectangle 1590" width="24" height="24" fill="none"/>
</svg>
