<svg id="Component_62_1" data-name="Component 62 – 1" xmlns="http://www.w3.org/2000/svg" width="32" height="32" viewBox="0 0 32 32">
  <rect id="Rectangle_1482" data-name="Rectangle 1482" width="32" height="32" fill="none"/>
  <g id="Group_3988" data-name="Group 3988" transform="translate(-296.512 -408.95)">
    <path id="Path_5543" data-name="Path 5543" d="M311.072,435.28h-6.85a1.718,1.718,0,0,1-1.71-1.72v-17.9a1.716,1.716,0,0,1,1.71-1.71h13.69a1.718,1.718,0,0,1,1.72,1.71v8.95" fill="none" stroke="#2f4858" stroke-linecap="round" stroke-miterlimit="10" stroke-width="2"/>
    <rect id="Rectangle_1688" data-name="Rectangle 1688" width="5.926" height="10.694" rx="2.963" transform="translate(319.213 426.779) rotate(42.091)" fill="none" stroke="#2f4858" stroke-linecap="round" stroke-miterlimit="10" stroke-width="2"/>
    <line id="Line_183" data-name="Line 183" x2="3.591" y2="3.284" transform="translate(315.903 430.975)" fill="none" stroke="#2f4858" stroke-linecap="round" stroke-miterlimit="10" stroke-width="2"/>
    <circle id="Ellipse_281" data-name="Ellipse 281" cx="4.564" cy="4.564" r="4.564" transform="translate(306.508 417.821)" fill="none" stroke="#2f4858" stroke-linecap="round" stroke-miterlimit="10" stroke-width="2"/>
    <g id="Group_3989" data-name="Group 3989" transform="translate(-591.488 -49.05)">
      <path id="Path_5544" data-name="Path 5544" d="M-15503.761,5366.442h-4.072" transform="translate(16408.512 -4895)" fill="none" stroke="#2f4858" stroke-linecap="round" stroke-width="1"/>
      <path id="Path_5545" data-name="Path 5545" d="M-15503.761,5366.442h-4.072" transform="translate(-4463.727 -15034.354) rotate(-90)" fill="none" stroke="#2f4858" stroke-linecap="round" stroke-width="1"/>
    </g>
  </g>
</svg>
