<svg xmlns="http://www.w3.org/2000/svg" width="86.572" height="55.047" viewBox="0 0 86.572 55.047">
  <g id="Group_4044" data-name="Group 4044" transform="translate(-721.479 -408.98)">
    <path id="Path_5472" data-name="Path 5472" d="M747.662,515.536h24.47a2.515,2.515,0,0,1,.632.035,1.443,1.443,0,0,1,1.051,1.294c.01.126,0,.254,0,.381q0,7.2,0,14.394a2.528,2.528,0,0,1-.034.547,1.372,1.372,0,0,1-1.4,1.166c-.169,0-.339,0-.508,0H723.361c-.2,0-.4,0-.592-.008a1.366,1.366,0,0,1-1.285-1.326c0-.056,0-.113,0-.169q0-7.409,0-14.818a1.436,1.436,0,0,1,.425-1.107,1.27,1.27,0,0,1,.908-.391h24.851Z" transform="translate(0 -87.754)" fill="#bfe34e"/>
    <path id="Path_5473" data-name="Path 5473" d="M1036.311,528.089a9.521,9.521,0,0,1-.383,1.2q-1.931,5.643-3.867,11.283c-.154.449-.108.382-.519.385-.579,0-1.157,0-1.736,0-.377,0-.379,0-.5-.352q-.768-2.218-1.534-4.437-1.334-3.857-2.667-7.715a.5.5,0,0,1-.066-.344,1.633,1.633,0,0,1,.526-.028c.649,0,1.3,0,1.948,0,.381,0,.384,0,.486.359q1.175,4.107,2.351,8.213a4.492,4.492,0,0,0,.309.936c.186-.631.36-1.21.528-1.79q.985-3.391,1.969-6.782a1.14,1.14,0,0,1,1.2-.93C1034.987,528.079,1035.622,528.089,1036.311,528.089Z" transform="translate(-249.991 -98.086)" fill="#bfe34e"/>
    <path id="Path_5474" data-name="Path 5474" d="M1114.055,550.315c.353,0,.705,0,1.058,0a.216.216,0,0,1,.254.212,1.4,1.4,0,0,0,1.369,1.215,4.845,4.845,0,0,0,1.266.007,1.493,1.493,0,0,0,.6-.2.679.679,0,0,0,.054-1.208,3.105,3.105,0,0,0-1.044-.447c-.52-.125-1.045-.227-1.567-.344a6.054,6.054,0,0,1-1.695-.633,2.827,2.827,0,0,1-.146-4.681,4.551,4.551,0,0,1,2.131-.746,5.846,5.846,0,0,1,3.143.433,3.093,3.093,0,0,1,1.809,2.576c.025.185-.033.257-.221.254-.494-.008-.989.014-1.48-.013a1.065,1.065,0,0,1-1.035-.672.769.769,0,0,0-.45-.425,2.865,2.865,0,0,0-2.063-.023.582.582,0,0,0-.417.659.635.635,0,0,0,.209.4,1.953,1.953,0,0,0,.726.419,14.388,14.388,0,0,0,1.681.411,9.078,9.078,0,0,1,2.032.7,2.46,2.46,0,0,1,1.34,2.513,2.982,2.982,0,0,1-2.314,2.79,4.383,4.383,0,0,1-.575.137,8.342,8.342,0,0,1-3.44-.048,3.562,3.562,0,0,1-1.554-.822,2.978,2.978,0,0,1-.962-2.181c-.015-.275,0-.281.276-.286C1113.378,550.311,1113.716,550.315,1114.055,550.315Z" transform="translate(-322.246 -110.741)" fill="#bfe34e"/>
    <path id="Path_5475" data-name="Path 5475" d="M849.412,408.98a27.594,27.594,0,0,1,25.013,16.04c.166.358.312.725.47,1.087.073.167.013.223-.16.237-.679.056-.673.056-.961-.585a26.92,26.92,0,0,0-4.506-6.975,26.588,26.588,0,0,0-8.479-6.352,26,26,0,0,0-6.909-2.18,25.593,25.593,0,0,0-4.967-.383,26.776,26.776,0,0,0-23.762,15.63c-.041.089-.075.182-.114.273-.257.61-.306.634-.975.574-.186-.017-.214-.089-.144-.245.213-.476.407-.961.634-1.431a27.763,27.763,0,0,1,4.761-6.959,27.448,27.448,0,0,1,11.413-7.335,25.849,25.849,0,0,1,5.644-1.228A28.707,28.707,0,0,1,849.412,408.98Z" transform="translate(-84.337 0)" fill="#bfe34e"/>
    <path id="Path_5476" data-name="Path 5476" d="M825.011,625.407c.039-.02.051-.031.064-.032.819-.068.812-.064,1.16.663a26.774,26.774,0,0,0,7.11,9.152,26.4,26.4,0,0,0,8.879,4.879,26.748,26.748,0,0,0,5.071,1.091,27.058,27.058,0,0,0,4.69.124,25.765,25.765,0,0,0,7.5-1.571,26.781,26.781,0,0,0,14.03-11.913,21.165,21.165,0,0,0,1.1-2.19.348.348,0,0,1,.384-.252c.209.014.42,0,.709,0a27.143,27.143,0,0,1-6.866,9.693,26.846,26.846,0,0,1-15.539,7.006A27.445,27.445,0,0,1,825.011,625.407Z" transform="translate(-85.266 -178.193)" fill="#bfe34e"/>
    <path id="Path_5477" data-name="Path 5477" d="M1191.74,540.875a9.166,9.166,0,0,1-1.349-.061,1.39,1.39,0,0,1-1.313-1.4c-.011-.126-.01-.254-.01-.38q0-5.161,0-10.322V528.5c0-.438-.023-.415.413-.415.268,0,.537.018.8,0a1.3,1.3,0,0,1,1.312,1.314c0,.423.009.846,0,1.269-.006.222.078.3.3.289.324-.013.649,0,.973,0,.115,0,.217,0,.249.158a1.371,1.371,0,0,1-.889,1.585,1.258,1.258,0,0,1-.205.046c-.419.053-.42.052-.42.453q0,2.454,0,4.907c0,.644.179.818.832.824.684.006.684.006.684.7,0,.324-.006.649,0,.973,0,.2-.082.286-.276.278-.042,0-.085,0-.127,0Z" transform="translate(-385.091 -98.084)" fill="#bfe34e"/>
    <path id="Path_5478" data-name="Path 5478" d="M1093.559,549.348v-4.488c0-.1,0-.2,0-.3-.005-.141.057-.208.2-.206.466.006.933-.014,1.4.019a.935.935,0,0,1,.9.86,2.941,2.941,0,0,1,.033.547q0,4.065,0,8.13c0,.028,0,.056,0,.085,0,.365,0,.368-.373.369q-.89,0-1.779,0c-.378,0-.381,0-.381-.4Q1093.558,551.655,1093.559,549.348Z" transform="translate(-306.433 -111.491)" fill="#bfe34e"/>
    <path id="Path_5479" data-name="Path 5479" d="M1167.949,549.365v-4.487c0-.1.005-.2,0-.3-.008-.158.057-.233.221-.23.451.007.9-.012,1.354.017a.939.939,0,0,1,.909.8,2.123,2.123,0,0,1,.044.546q0,4.085,0,8.17c0,.085-.005.169,0,.254.01.162-.062.226-.224.225-.692,0-1.383-.008-2.074,0-.279,0-.23-.184-.23-.345q0-1.968,0-3.937Z" transform="translate(-367.697 -111.487)" fill="#bfe34e"/>
    <path id="Path_5480" data-name="Path 5480" d="M1093.044,527.3a1.27,1.27,0,0,1,2.54-.012,1.27,1.27,0,1,1-2.54.012Z" transform="translate(-306.009 -96.406)" fill="#bfe34e"/>
    <path id="Path_5481" data-name="Path 5481" d="M1167.747,529.35a1.245,1.245,0,0,1-1.253-1.268,1.271,1.271,0,1,1,2.541.034A1.247,1.247,0,0,1,1167.747,529.35Z" transform="translate(-366.5 -97.038)" fill="#bfe34e"/>
    <path id="Path_5482" data-name="Path 5482" d="M800.164,550.683q0,1.672,0,3.344c0,.388,0,.39-.4.391-.691,0-1.383,0-2.074,0-.3,0-.309-.011-.309-.312,0-2.187-.022-4.375.015-6.561a4.44,4.44,0,0,1,.735-2.477,3.445,3.445,0,0,1,1.952-1.4,7.074,7.074,0,0,1,3.834-.018,3.423,3.423,0,0,1,1.109.5c.122.086.24.156.386.061a5.2,5.2,0,0,1,2.6-.748,6.711,6.711,0,0,1,2.577.292,3.453,3.453,0,0,1,2.36,2.7,7.5,7.5,0,0,1,.176,1.718c-.006,1.919,0,3.838,0,5.757,0,.1,0,.2,0,.3,0,.142-.075.2-.211.2-.494,0-.99.025-1.48-.019a1.169,1.169,0,0,1-1.093-1.274c-.009-1.453,0-2.907,0-4.36,0-.437.02-.876-.007-1.312a1.467,1.467,0,0,0-.658-1.3,2.381,2.381,0,0,0-2.383-.029,1.514,1.514,0,0,0-.671,1.339,3.88,3.88,0,0,0,0,.423v5.926c0,.113-.005.226,0,.339.008.172-.054.26-.242.258q-1.122-.008-2.244,0c-.188,0-.246-.092-.239-.262,0-.113,0-.226,0-.339q0-3.048,0-6.1a2.356,2.356,0,0,0-.276-1.179,1.1,1.1,0,0,0-.473-.47,2.519,2.519,0,0,0-2.085-.1,1.35,1.35,0,0,0-.88,1.364c-.015,1.115,0,2.229,0,3.344Z" transform="translate(-62.502 -110.7)" fill="#fff"/>
    <path id="Path_5483" data-name="Path 5483" d="M732.58,535.238c.367,0,.734,0,1.1,0,.137,0,.242.015.265.192a2.064,2.064,0,0,0,2.02,1.969,5.26,5.26,0,0,0,2.142-.074,1.761,1.761,0,0,0,1.121-.7,1.374,1.374,0,0,0-.538-2.04,12.02,12.02,0,0,0-2.01-.626,21.356,21.356,0,0,1-2.782-.851,4.313,4.313,0,0,1-2.046-1.573,3.072,3.072,0,0,1-.476-2.09,6.372,6.372,0,0,1,.263-1.361,3.491,3.491,0,0,1,2.353-2.252,8.416,8.416,0,0,1,4.872-.066,3.74,3.74,0,0,1,2.787,3.226,2.707,2.707,0,0,1,.086.584c-.007.162-.071.227-.23.225-.508,0-1.017.017-1.523-.009a1.134,1.134,0,0,1-1.02-.659,2.9,2.9,0,0,0-3.008-1.331,3.368,3.368,0,0,0-1.129.323,1.418,1.418,0,0,0-.3,2.234,3.562,3.562,0,0,0,1.128.649c.794.294,1.629.436,2.441.661.733.2,1.464.416,2.172.689a3,3,0,0,1,2.054,2.953,4.5,4.5,0,0,1-.554,2.44,3.82,3.82,0,0,1-2.52,1.78,9.745,9.745,0,0,1-4.93-.006,3.908,3.908,0,0,1-3.091-3.45c-.023-.181-.072-.357-.078-.542-.007-.214.059-.31.286-.3C731.817,535.247,732.2,535.238,732.58,535.238Z" transform="translate(-7.966 -95.913)" fill="#fff"/>
    <path id="Path_5484" data-name="Path 5484" d="M898.247,548.463c0,.733.033,1.469-.008,2.2a3.851,3.851,0,0,1-1.2,2.711,4.631,4.631,0,0,1-2.135,1.054,7.906,7.906,0,0,1-1.627.215,4.177,4.177,0,0,1-3.307-1.081,3.151,3.151,0,0,1-.782-1.564,3.677,3.677,0,0,1,.108-1.916,2.942,2.942,0,0,1,1.982-1.926,10.41,10.41,0,0,1,2.473-.5,3.616,3.616,0,0,0,1.335-.359.765.765,0,0,0-.03-1.417,3.259,3.259,0,0,0-1.36-.234,3.224,3.224,0,0,0-.5.061,1.209,1.209,0,0,0-.9.492.4.4,0,0,1-.38.2c-.733-.008-1.467,0-2.2-.006-.251,0-.256-.014-.2-.27a3.125,3.125,0,0,1,2.492-2.521,7.8,7.8,0,0,1,2.851-.122,5.774,5.774,0,0,1,1.792.443,2.586,2.586,0,0,1,1.6,2.51c0,.677,0,1.354,0,2.031Z" transform="translate(-138.054 -110.707)" fill="#fff"/>
    <path id="Path_5485" data-name="Path 5485" d="M980.753,533q0-2.878,0-5.755c0-.1,0-.2,0-.3-.006-.159.067-.231.227-.23.409,0,.82-.024,1.227.008a1.356,1.356,0,0,1,1.262,1.39c0,.437,0,.875,0,1.312,0,.406,0,.407.426.41.324,0,.649.007.973,0,.2-.005.274.063.279.267a1.469,1.469,0,0,1-.987,1.631,1.327,1.327,0,0,1-.332.053c-.355.018-.359.02-.36.39q0,2.708,0,5.417c0,.651.236.875.9.882.183,0,.367,0,.55,0,.163,0,.224.079.223.234,0,.536,0,1.072,0,1.608a.23.23,0,0,1-.255.265,16.477,16.477,0,0,1-2.406-.047,3.349,3.349,0,0,1-.627-.075,1.543,1.543,0,0,1-1.1-1.581c-.012-1,0-2-.005-3Q980.753,534.438,980.753,533Z" transform="translate(-213.529 -96.959)" fill="#fff"/>
    <path id="Path_5486" data-name="Path 5486" d="M943.369,552.234c0-.705,0-1.41,0-2.115a9.628,9.628,0,0,1,.241-2.216,4.274,4.274,0,0,1,3.444-3.32,7.228,7.228,0,0,1,1.969-.183c.331.014.339.01.341.325q.007,1.078,0,2.157c0,.316-.01.323-.342.324a9.821,9.821,0,0,0-1.137.066,1.851,1.851,0,0,0-1.642,1.525,6.194,6.194,0,0,0-.091,1.049c.009,1.607,0,3.214,0,4.822,0,.1-.007.2,0,.3.013.193-.058.281-.264.279-.747-.007-1.495-.008-2.242,0-.229,0-.287-.1-.286-.3C943.372,554.038,943.369,553.136,943.369,552.234Z" transform="translate(-182.739 -111.522)" fill="#fff"/>
    <path id="Path_5487" data-name="Path 5487" d="M905.742,580.394c-.537,0-.478.059-.48-.565,0-.712,0-.711-.716-.713-.607,0-.552.05-.551-.538,0-.628-.064-.568.56-.572.141,0,.282-.01.422,0,.228.018.294-.092.286-.3-.01-.267,0-.535,0-.8,0-.156.06-.236.222-.233.239,0,.479,0,.718,0,.177,0,.257.072.253.251-.005.253,0,.507,0,.76.007.317.01.319.34.325.225,0,.451.006.676,0,.177,0,.242.069.256.248.068.863.072.862-.78.864-.056,0-.113,0-.169,0-.315.01-.317.01-.323.342,0,.211-.008.423,0,.634s-.061.321-.287.3C906.056,580.387,905.943,580.394,905.742,580.394Z" transform="translate(-150.313 -138.102)" fill="#bfe34e"/>
  </g>
</svg>
