<svg id="Component_25_92" data-name="Component 25 – 92" xmlns="http://www.w3.org/2000/svg" width="32" height="32" viewBox="0 0 32 32">
  <path id="Path_5436" data-name="Path 5436" d="M12.228,4.128m0-3.128,5.434,12.448v2.346a1.563,1.563,0,0,1-1.558,1.57c-.049,0-.1,0-.147-.006a15.472,15.472,0,0,1-6.748-2.4,15.244,15.244,0,0,1-4.691-4.691,15.472,15.472,0,0,1-2.4-6.779,1.565,1.565,0,0,1,1.417-1.7c.046,0,.093-.006.139-.006H6.02A1.563,1.563,0,0,1,7.584,3.127a10.034,10.034,0,0,0,.547,2.2,1.563,1.563,0,0,1-.352,1.65l-.993.993a12.51,12.51,0,0,0,4.691,4.691l.993-.993a1.563,1.563,0,0,1,1.65-.352,10.034,10.034,0,0,0,2.2.547A1.564,1.564,0,0,1,17.662,13.448Z" transform="translate(6.182 6.336)" fill="none" stroke="#fff" stroke-linecap="round" stroke-linejoin="round" stroke-width="1.5"/>
  <rect id="Rectangle_1481" data-name="Rectangle 1481" width="32" height="32" fill="none"/>
</svg>
