<svg xmlns="http://www.w3.org/2000/svg" width="48" height="48" viewBox="0 0 48 48">
  <g id="Group_4046" data-name="Group 4046" transform="translate(-465 -1128)">
    <rect id="Rectangle_1641" data-name="Rectangle 1641" width="48" height="48" rx="8" transform="translate(465 1128)" fill="#bfe34e" opacity="0.2"/>
    <g id="Group_3946" data-name="Group 3946" transform="translate(458.305 1135.824)">
      <path id="Path_5507" data-name="Path 5507" d="M17.088,25.381c-.268.965-.416,3.343,4,6.006l.479.289.478-.289c4.419-2.662,4.273-5.033,4-6a2.772,2.772,0,0,0-2.627-2.066,3.121,3.121,0,0,0-1.856.616c-.065-.049-.147-.07-.216-.113A13.042,13.042,0,0,1,32.884,2.015l.29-1.832A14.908,14.908,0,0,0,18.74,23.53,2.809,2.809,0,0,0,17.088,25.381Z" fill="#bfe34e"/>
      <path id="Path_5508" data-name="Path 5508" d="M224.853,18.066A2.772,2.772,0,0,0,222.226,16a3.121,3.121,0,0,0-1.856.616A3.121,3.121,0,0,0,218.514,16a2.764,2.764,0,0,0-2.624,2.057c-.268.965-.416,3.5,4,6.162l.479.289.478-.289c.351-.211.663-.421.959-.63a12.808,12.808,0,0,1,2.275,7.259A13,13,0,0,1,208.5,43.642l-.37,1.82a14.857,14.857,0,0,0,17.81-14.613,14.646,14.646,0,0,0-2.7-8.447c1.945-1.935,1.819-3.6,1.614-4.335Z" transform="translate(-180.242 -15.01)" fill="#bfe34e"/>
      <path id="Path_5509" data-name="Path 5509" d="M228.349,136c-.445,0-1.66,2.247-1.823,6.5h3.647C230.009,138.247,228.794,136,228.349,136Z" transform="translate(-197.502 -127.586)" fill="#bfe34e"/>
      <path id="Path_5510" data-name="Path 5510" d="M107.516,114.352h5.492c.15-4.182,1.32-8.352,3.694-8.352A9.26,9.26,0,0,0,107.516,114.352Z" transform="translate(-85.854 -99.442)" fill="#bfe34e"/>
      <path id="Path_5511" data-name="Path 5511" d="M265.186,114.352A9.26,9.26,0,0,0,256,106c2.374,0,3.544,4.17,3.694,8.352Z" transform="translate(-225.152 -99.442)" fill="#bfe34e"/>
      <path id="Path_5512" data-name="Path 5512" d="M265.186,271h-5.492c-.15,4.182-1.32,8.414-3.694,8.414A9.315,9.315,0,0,0,265.186,271Z" transform="translate(-225.152 -254.234)" fill="#bfe34e"/>
      <path id="Path_5513" data-name="Path 5513" d="M228.349,277.558c.445,0,1.66-2.309,1.823-6.558h-3.647C226.689,275.249,227.9,277.558,228.349,277.558Z" transform="translate(-197.501 -254.234)" fill="#bfe34e"/>
      <path id="Path_5514" data-name="Path 5514" d="M113.008,271h-5.492a9.315,9.315,0,0,0,9.186,8.414C114.328,279.414,113.158,275.182,113.008,271Z" transform="translate(-85.854 -254.234)" fill="#bfe34e"/>
    </g>
  </g>
</svg>
