<svg xmlns="http://www.w3.org/2000/svg" width="48" height="48" viewBox="0 0 48 48">
  <g id="Group_4040" data-name="Group 4040" transform="translate(-1073 -187)">
    <rect id="Rectangle_1646" data-name="Rectangle 1646" width="48" height="48" rx="8" transform="translate(1073 187)" fill="#bfe34e"/>
    <g id="Group_3971" data-name="Group 3971" transform="translate(1070.402 202.734)">
      <path id="Path_5525" data-name="Path 5525" d="M30.97,0,28.753,0a3.892,3.892,0,0,0-4.1,4.206V6.146H22.426a.349.349,0,0,0-.349.349V9.3a.348.348,0,0,0,.349.349h2.228v7.09a.348.348,0,0,0,.349.349H27.91a.349.349,0,0,0,.349-.349V9.653h2.606a.348.348,0,0,0,.349-.349V6.494a.349.349,0,0,0-.349-.349H28.258V4.5c0-.79.188-1.191,1.218-1.191h1.493a.348.348,0,0,0,.348-.349V.352A.349.349,0,0,0,30.97,0Z" fill="#fff"/>
    </g>
  </g>
</svg>
