<svg xmlns="http://www.w3.org/2000/svg" width="48" height="48" viewBox="0 0 48 48">
  <g id="Group_4041" data-name="Group 4041" transform="translate(-1141 -187)">
    <rect id="Rectangle_1647" data-name="Rectangle 1647" width="48" height="48" rx="8" transform="translate(1141 187)" fill="#bfe34e"/>
    <path id="Path_5526" data-name="Path 5526" d="M24.573,50.364a10.5,10.5,0,0,1-2.9.8,5.009,5.009,0,0,0,2.216-2.784,10.068,10.068,0,0,1-3.195,1.219,5.037,5.037,0,0,0-8.714,3.445,5.187,5.187,0,0,0,.117,1.149A14.259,14.259,0,0,1,1.711,48.918a5.039,5.039,0,0,0,1.548,6.733,4.975,4.975,0,0,1-2.276-.62v.055a5.061,5.061,0,0,0,4.036,4.95A5.028,5.028,0,0,1,3.7,60.2a4.454,4.454,0,0,1-.954-.086,5.086,5.086,0,0,0,4.707,3.509,10.122,10.122,0,0,1-6.246,2.149A9.436,9.436,0,0,1,0,65.705a14.183,14.183,0,0,0,7.728,2.261A14.24,14.24,0,0,0,22.067,53.63c0-.223-.008-.438-.018-.651A10.05,10.05,0,0,0,24.573,50.364Z" transform="translate(1153.068 152.68)" fill="#fff"/>
  </g>
</svg>
