<svg id="Group_4044" data-name="Group 4044" xmlns="http://www.w3.org/2000/svg" width="31.273" height="21.502" viewBox="0 0 31.273 21.502">
  <g id="Group_3964" data-name="Group 3964" transform="translate(0 3.964)">
    <g id="Group_3963" data-name="Group 3963">
      <path id="Path_5521" data-name="Path 5521" d="M349.936,151.843l-10.544,6.665V144.9Z" transform="translate(-339.392 -144.896)" fill="#bfe34e"/>
    </g>
  </g>
  <g id="Group_3966" data-name="Group 3966" transform="translate(20.731 3.964)">
    <g id="Group_3965" data-name="Group 3965">
      <path id="Path_5522" data-name="Path 5522" d="M10.544,144.9v13.612L0,151.843Z" transform="translate(0 -144.896)" fill="#bfe34e"/>
    </g>
  </g>
  <g id="Group_3968" data-name="Group 3968" transform="translate(0.059 0)">
    <g id="Group_3967" data-name="Group 3967">
      <path id="Path_5523" data-name="Path 5523" d="M2.856,80H30.222a1.93,1.93,0,0,1,1.9,1.663L16.539,91.927.96,81.663A1.93,1.93,0,0,1,2.856,80Z" transform="translate(-0.96 -80)" fill="#bfe34e"/>
    </g>
  </g>
  <g id="Group_3970" data-name="Group 3970" transform="translate(0.063 12.09)">
    <g id="Group_3969" data-name="Group 3969">
      <path id="Path_5524" data-name="Path 5524" d="M13.3,277.922l2.766,1.822a.981.981,0,0,0,1.075,0L19.9,277.92l12.271,7.762a1.927,1.927,0,0,1-1.892,1.65H2.916a1.927,1.927,0,0,1-1.892-1.65Z" transform="translate(-1.024 -277.92)" fill="#bfe34e"/>
    </g>
  </g>
</svg>
