<svg xmlns="http://www.w3.org/2000/svg" width="48" height="48" viewBox="0 0 48 48">
  <g id="Group_4045" data-name="Group 4045" transform="translate(-328 -418)">
    <rect id="Rectangle_1642" data-name="Rectangle 1642" width="48" height="48" rx="8" transform="translate(328 418)" fill="#bfe34e" opacity="0.2"/>
    <g id="Group_3961" data-name="Group 3961" transform="translate(339 427)">
      <g id="Group_3960" data-name="Group 3960">
        <path id="Path_5520" data-name="Path 5520" d="M145.051,109.739a.88.88,0,0,0-1.245,1.242,11.421,11.421,0,0,1,0,16.154.88.88,0,0,0,1.245,1.242A13.178,13.178,0,0,0,145.051,109.739Zm-2.492,2.485a.88.88,0,0,0-1.245,1.242,7.9,7.9,0,0,1,0,11.184.88.88,0,0,0,1.245,1.242,9.656,9.656,0,0,0,0-13.669Zm-2.491,2.486a.88.88,0,0,0-1.245,1.242,4.393,4.393,0,0,1,0,6.212.88.88,0,0,0,1.245,1.242,6.147,6.147,0,0,0,0-8.7Zm-6.12,9.621h-2.642v10.544h2.642a.879.879,0,0,0,.881-.879v-8.786a.879.879,0,0,0-.881-.879ZM123.4,110.108a61.741,61.741,0,0,0-.9,9.829,61.742,61.742,0,0,0,.9,9.829,6.123,6.123,0,0,0,6.075,5.108h.074V105h-.074A6.123,6.123,0,0,0,123.4,110.108ZM133.948,105h-2.642v10.544h2.642a.879.879,0,0,0,.881-.879v-8.786a.879.879,0,0,0-.881-.879Z" transform="translate(-122.5 -105)" fill="#bfe34e"/>
      </g>
    </g>
  </g>
</svg>
